# xmcd
#
# Track frame offsets:
#	150
#	34875
#	66448
#
# Disc length: 1459 seconds
# Revision: 2
# Processed by: cddbd v1.5.2PL0 Copyright (c) Steve Scherf et al.
# Submitted via: dBpowerAMP V12.0
#
DISCID=2605b103
DTITLE=Lester Levenson - Private Lessons with Lester CD 02
DYEAR=1986
DGENRE=Home Study
TTITLE0=You Can Do Anything
TTITLE1=Identify with Beingness Only
TTITLE2=Imperturbability
EXTD=
EXTT0=
EXTT1=
EXTT2=
PLAYORDER=
